<?xml version="1.0" encoding="utf-8"?>
<!-- Generator: Adobe Illustrator 16.0.4, SVG Export Plug-In . SVG Version: 6.00 Build 0)  -->
<!DOCTYPE svg PUBLIC "-//W3C//DTD SVG 1.1//EN" "http://www.w3.org/Graphics/SVG/1.1/DTD/svg11.dtd">
<svg width="22px" height="22px" viewBox="0 0 30 30" class="icon download-extension-icon" preserveAspectRatio="xMinYMin meet" version="1.1" xmlns="http://www.w3.org/2000/svg" xmlns:xlink="http://www.w3.org/1999/xlink" xml:space="preserve">
  <g>
    <circle fill="#2e9af4" cx="15" cy="15" r="5"></circle>
    <path fill="#2e9af4" d="M29.128,10H18.313C19.932,11.075,21,12.912,21,15c0,1.681-0.921,3.876-2,5c-2.179,2.268-8.428,9.334-8.428,9.334  C11.972,29.766,13.458,30,15,30c8.284,0,15-6.716,15-15C30,13.244,29.683,11.566,29.128,10z"></path>
    <path fill="#2e9af4" d="M9,16C8.049,13.146,3.63,5.233,3.63,5.233C1.373,7.859,0,11.266,0,15c0,6.456,3.578,11.943,9.3,14.058l7.733-8.419  C16.397,20.868,15.715,21,15,21C11.993,21,10,19,9,16z"></path>
    <path fill="#2e9af4" d="M9.215,13.43C9.906,10.879,12.231,9,15,9h13.743C26.428,3.704,21.149,0,15,0C10.959,0,7.299,1.605,4.602,4.204L9.215,13.43z"></path>
  </g>
</svg>
